<svg width="40" height="45" viewBox="0 0 40 45" fill="none" xmlns="http://www.w3.org/2000/svg">
<path fill-rule="evenodd" clip-rule="evenodd" d="M5.14347 29.3705L4.97177 29.3255L0.476652 28.1481L3.82169 24.8896L13.2431 15.712L5.14347 29.3705ZM18.6119 33.9122L25.6269 40.7699L28.9331 44.002L30.1353 39.5848L30.2489 39.1673L20.9381 33.9122H18.6119ZM22.4823 33.9122L35.5049 37.3234L40 38.5008L38.7697 34.0439L38.7334 33.9122H38.7173H22.4823ZM35.356 20.4019L38.2228 9.86832L39.4213 5.46465L34.9167 6.63627L34.4983 6.74509L34.5198 18.6475L30.5811 4.37882L29.3724 0L26.086 3.20137L25.4965 3.77562L35.356 20.4019ZM15.6541 11.6462L4.51847 14.5425L0 15.7177L3.30619 18.9497L3.50206 19.1412L15.0632 12.6427L15.6541 11.6462ZM22.9965 29.9122H9.47265L11.2909 26.8461L22.9965 29.9122ZM28.5819 29.9122H30.5062L30.4935 22.8884L28.5819 29.9122ZM33.4591 29.9122H36.3453L30.9457 20.8069L33.4591 29.9122ZM26.2983 12.9698L25.4488 11.5373L21.9096 14.1112L26.2983 12.9698ZM25.4086 11.4695L25.3672 11.3997L25.3046 11.4349L25.4086 11.4695ZM24.6373 10.1688L22.909 7.25434L16.4527 18.1417L24.6373 10.1688ZM12.6109 24.6201L17.8548 27.5798L13.4243 23.2486L12.6109 24.6201Z" fill="white"/>
</svg>
